<svg width="27" height="27" viewBox="0 0 27 27" fill="none" xmlns="http://www.w3.org/2000/svg">
<path fill-rule="evenodd" clip-rule="evenodd" d="M5.0398 1.80005H4.9498C4.5376 1.80005 4.183 1.80005 3.8698 1.87385C3.38495 1.98971 2.94163 2.23753 2.58898 2.58987C2.23632 2.94221 1.9881 3.3853 1.8718 3.87005C1.7998 4.18325 1.7998 4.53605 1.7998 4.95005V9.45005C1.7998 9.86225 1.7998 10.2168 1.8736 10.53C1.98946 11.0149 2.23729 11.4582 2.58963 11.8109C2.94196 12.1635 3.38505 12.4118 3.8698 12.528C4.183 12.6 4.5358 12.6 4.9498 12.6H9.4498C9.862 12.6 10.2166 12.6 10.5298 12.5262C11.0147 12.4104 11.458 12.1626 11.8106 11.8102C12.1633 11.4579 12.4115 11.0148 12.5278 10.53C12.5998 10.2168 12.5998 9.86405 12.5998 9.45005V4.95005C12.5998 4.53785 12.5998 4.18325 12.526 3.87005C12.4101 3.38519 12.1623 2.94188 11.81 2.58922C11.4576 2.23657 11.0146 1.98834 10.5298 1.87205C10.2166 1.80005 9.8638 1.80005 9.4498 1.80005H9.3598H5.0398ZM4.2892 3.62525C4.3666 3.60725 4.4872 3.60005 5.0398 3.60005H9.3598C9.9142 3.60005 10.033 3.60545 10.1104 3.62525C10.2721 3.66392 10.4199 3.74661 10.5375 3.86417C10.655 3.98173 10.7377 4.12956 10.7764 4.29125C10.7944 4.36685 10.7998 4.48565 10.7998 5.04005V9.36005C10.7998 9.91445 10.7944 10.0332 10.7746 10.1106C10.7359 10.2723 10.6532 10.4202 10.5357 10.5377C10.4181 10.6553 10.2703 10.738 10.1086 10.7766C10.0348 10.7928 9.916 10.8 9.3598 10.8H5.0398C4.4854 10.8 4.3666 10.7946 4.2892 10.7748C4.12751 10.7362 3.97969 10.6535 3.86213 10.5359C3.74457 10.4184 3.66187 10.2705 3.6232 10.1088C3.607 10.035 3.5998 9.91625 3.5998 9.36005V5.04005C3.5998 4.48565 3.6052 4.36685 3.625 4.28945C3.66367 4.12775 3.74637 3.97993 3.86393 3.86237C3.98149 3.74481 4.12931 3.66212 4.291 3.62345M17.6398 1.80005H17.5498C17.1376 1.80005 16.783 1.80005 16.4698 1.87385C15.9849 1.98971 15.5416 2.23753 15.189 2.58987C14.8363 2.94221 14.5881 3.3853 14.4718 3.87005C14.3998 4.18325 14.3998 4.53605 14.3998 4.95005V9.45005C14.3998 9.86225 14.3998 10.2168 14.4736 10.53C14.5895 11.0149 14.8373 11.4582 15.1896 11.8109C15.542 12.1635 15.9851 12.4118 16.4698 12.528C16.783 12.6 17.1358 12.6 17.5498 12.6H22.0498C22.462 12.6 22.8166 12.6 23.1298 12.5262C23.6147 12.4104 24.058 12.1626 24.4106 11.8102C24.7633 11.4579 25.0115 11.0148 25.1278 10.53C25.1998 10.2168 25.1998 9.86405 25.1998 9.45005V4.95005C25.1998 4.53785 25.1998 4.18325 25.126 3.87005C25.0101 3.38519 24.7623 2.94188 24.41 2.58922C24.0576 2.23657 23.6146 1.98834 23.1298 1.87205C22.8166 1.80005 22.4638 1.80005 22.0498 1.80005H21.9598H17.6398ZM16.8892 3.62525C16.9666 3.60725 17.0872 3.60005 17.6398 3.60005H21.9598C22.5142 3.60005 22.633 3.60545 22.7104 3.62525C22.8721 3.66392 23.0199 3.74661 23.1375 3.86417C23.255 3.98173 23.3377 4.12956 23.3764 4.29125C23.3944 4.36685 23.3998 4.48565 23.3998 5.04005V9.36005C23.3998 9.91445 23.3926 10.0332 23.3746 10.1106C23.3359 10.2723 23.2532 10.4202 23.1357 10.5377C23.0181 10.6553 22.8703 10.738 22.7086 10.7766C22.633 10.7946 22.5142 10.8 21.9598 10.8H17.6398C17.0854 10.8 16.9666 10.7946 16.8892 10.7748C16.7275 10.7362 16.5797 10.6535 16.4621 10.5359C16.3446 10.4184 16.2619 10.2705 16.2232 10.1088C16.207 10.035 16.1998 9.91625 16.1998 9.36005V5.04005C16.1998 4.48565 16.2052 4.36685 16.225 4.28945C16.2637 4.12775 16.3464 3.97993 16.4639 3.86237C16.5815 3.74481 16.7293 3.66212 16.891 3.62345M4.9498 14.4H9.4498C9.862 14.4 10.2166 14.4 10.5298 14.4738C11.0147 14.5897 11.458 14.8375 11.8106 15.1899C12.1633 15.5422 12.4115 15.9853 12.5278 16.47C12.5998 16.7832 12.5998 17.136 12.5998 17.55V22.05C12.5998 22.4622 12.5998 22.8168 12.526 23.13C12.4101 23.6149 12.1623 24.0582 11.81 24.4109C11.4576 24.7635 11.0146 25.0118 10.5298 25.128C10.2166 25.2 9.8638 25.2 9.4498 25.2H4.9498C4.5376 25.2 4.183 25.2 3.8698 25.1262C3.38495 25.0104 2.94163 24.7626 2.58898 24.4102C2.23632 24.0579 1.9881 23.6148 1.8718 23.13C1.7998 22.8168 1.7998 22.464 1.7998 22.05V17.55C1.7998 17.1378 1.7998 16.7832 1.8736 16.47C1.98946 15.9852 2.23729 15.5419 2.58963 15.1892C2.94196 14.8366 3.38505 14.5883 3.8698 14.472C4.183 14.4 4.5358 14.4 4.9498 14.4ZM5.0398 16.2C4.4854 16.2 4.3666 16.2054 4.2892 16.2252C4.12751 16.2639 3.97969 16.3466 3.86213 16.4642C3.74457 16.5817 3.66187 16.7296 3.6232 16.8912C3.607 16.965 3.5998 17.0838 3.5998 17.64V21.96C3.5998 22.5144 3.6052 22.6332 3.625 22.7106C3.66367 22.8723 3.74637 23.0202 3.86393 23.1377C3.98149 23.2553 4.12931 23.338 4.291 23.3766C4.3666 23.3946 4.4854 23.4 5.0398 23.4H9.3598C9.9142 23.4 10.033 23.3928 10.1104 23.3748C10.2721 23.3362 10.4199 23.2535 10.5375 23.1359C10.655 23.0184 10.7377 22.8705 10.7764 22.7088C10.7944 22.6332 10.7998 22.5144 10.7998 21.96V17.64C10.7998 17.0856 10.7944 16.9668 10.7746 16.8894C10.7359 16.7278 10.6532 16.5799 10.5357 16.4624C10.4181 16.3448 10.2703 16.2621 10.1086 16.2234C10.0348 16.2072 9.916 16.2 9.3598 16.2H5.0398ZM17.6398 14.4H17.5498C17.1376 14.4 16.783 14.4 16.4698 14.4738C15.9849 14.5897 15.5416 14.8375 15.189 15.1899C14.8363 15.5422 14.5881 15.9853 14.4718 16.47C14.3998 16.7832 14.3998 17.136 14.3998 17.55V22.05C14.3998 22.4622 14.3998 22.8168 14.4736 23.13C14.5895 23.6149 14.8373 24.0582 15.1896 24.4109C15.542 24.7635 15.9851 25.0118 16.4698 25.128C16.783 25.2018 17.1376 25.2018 17.5498 25.2018H22.0498C22.462 25.2018 22.8166 25.2018 23.1298 25.128C23.6143 25.0119 24.0573 24.7639 24.4096 24.4116C24.7619 24.0593 25.0099 23.6164 25.126 23.1318C25.1998 22.8186 25.1998 22.464 25.1998 22.0518V17.55C25.1998 17.1378 25.1998 16.7832 25.126 16.47C25.0101 15.9852 24.7623 15.5419 24.41 15.1892C24.0576 14.8366 23.6146 14.5883 23.1298 14.472C22.8166 14.4 22.4638 14.4 22.0498 14.4H21.9598H17.6398ZM16.8892 16.2252C16.9666 16.2072 17.0872 16.2 17.6398 16.2H21.9598C22.5142 16.2 22.633 16.2054 22.7104 16.2252C22.8721 16.2639 23.0199 16.3466 23.1375 16.4642C23.255 16.5817 23.3377 16.7296 23.3764 16.8912C23.3944 16.9668 23.3998 17.0856 23.3998 17.64V21.96C23.3998 22.5144 23.3926 22.6332 23.3746 22.7106C23.3359 22.8723 23.2532 23.0202 23.1357 23.1377C23.0181 23.2553 22.8703 23.338 22.7086 23.3766C22.633 23.3946 22.5142 23.4 21.9598 23.4H17.6398C17.0854 23.4 16.9666 23.3928 16.8892 23.3748C16.7275 23.3362 16.5797 23.2535 16.4621 23.1359C16.3446 23.0184 16.2619 22.8705 16.2232 22.7088C16.207 22.635 16.1998 22.5162 16.1998 21.96V17.64C16.1998 17.0856 16.2052 16.9668 16.225 16.8894C16.2637 16.7278 16.3464 16.5799 16.4639 16.4624C16.5815 16.3448 16.7293 16.2621 16.891 16.2234" fill="white"/>
</svg>
