<svg width="14" height="20" viewBox="0 0 14 20" fill="none" xmlns="http://www.w3.org/2000/svg">
<path d="M13.3333 6.66659C13.3333 5.37647 12.959 4.11408 12.2557 3.0325C11.5524 1.95093 10.5504 1.09664 9.37125 0.57326C8.19207 0.0498756 6.88636 -0.120124 5.61248 0.0838798C4.3386 0.287883 3.15127 0.857125 2.1945 1.72257C1.23773 2.58801 0.552624 3.71247 0.22227 4.95957C-0.108083 6.20667 -0.0694909 7.52284 0.333367 8.74844C0.736226 9.97404 1.48604 11.0564 2.49188 11.8643C3.49771 12.6722 4.71635 13.1709 6 13.2999V15.3333H3.33333C3.15652 15.3333 2.98695 15.4035 2.86193 15.5285C2.73691 15.6535 2.66667 15.8231 2.66667 15.9999C2.66667 16.1767 2.73691 16.3463 2.86193 16.4713C2.98695 16.5963 3.15652 16.6666 3.33333 16.6666H6V18.6666C6 18.8434 6.07024 19.013 6.19526 19.138C6.32029 19.263 6.48986 19.3333 6.66667 19.3333C6.84348 19.3333 7.01305 19.263 7.13807 19.138C7.2631 19.013 7.33333 18.8434 7.33333 18.6666V16.6666H10C10.1768 16.6666 10.3464 16.5963 10.4714 16.4713C10.5964 16.3463 10.6667 16.1767 10.6667 15.9999C10.6667 15.8231 10.5964 15.6535 10.4714 15.5285C10.3464 15.4035 10.1768 15.3333 10 15.3333H7.33333V13.2999C8.97697 13.1327 10.5002 12.3619 11.6085 11.1366C12.7167 9.91139 13.3313 8.31871 13.3333 6.66659ZM1.33333 6.66659C1.33333 5.61175 1.64613 4.58061 2.23216 3.70355C2.8182 2.82648 3.65115 2.1429 4.62569 1.73923C5.60023 1.33556 6.67258 1.22994 7.70715 1.43573C8.74171 1.64152 9.69202 2.14947 10.4379 2.89535C11.1838 3.64123 11.6917 4.59154 11.8975 5.62611C12.1033 6.66067 11.9977 7.73303 11.594 8.70757C11.1904 9.6821 10.5068 10.5151 9.62971 11.1011C8.75265 11.6871 7.7215 11.9999 6.66667 11.9999C5.25265 11.9984 3.897 11.436 2.89714 10.4361C1.89728 9.43626 1.33488 8.0806 1.33333 6.66659Z" fill="black" fill-opacity="0.35"/>
</svg>
