<svg width="17" height="17" viewBox="0 0 17 17" fill="none" xmlns="http://www.w3.org/2000/svg">
<path d="M16.0008 0H12.0008C11.824 0 11.6545 0.070238 11.5294 0.195262C11.4044 0.320287 11.3342 0.489856 11.3342 0.666667C11.3342 0.843478 11.4044 1.01305 11.5294 1.13807C11.6545 1.2631 11.824 1.33333 12.0008 1.33333H14.3917L10.8858 4.83917C9.56161 3.75673 7.872 3.22464 6.16647 3.35297C4.46094 3.4813 2.86997 4.26022 1.72261 5.52863C0.575252 6.79704 -0.0407208 8.45791 0.00209102 10.1677C0.0449028 11.8775 0.743224 13.5055 1.95262 14.7149C3.16202 15.9243 4.78998 16.6226 6.49979 16.6654C8.20961 16.7082 9.87048 16.0923 11.1389 14.9449C12.4073 13.7975 13.1862 12.2066 13.3145 10.5011C13.4429 8.79552 12.9108 7.10591 11.8283 5.78167L15.3342 2.27667V4.66667C15.3342 4.84348 15.4044 5.01305 15.5294 5.13807C15.6545 5.2631 15.824 5.33333 16.0008 5.33333C16.1777 5.33333 16.3472 5.2631 16.4723 5.13807C16.5973 5.01305 16.6675 4.84348 16.6675 4.66667V0.666667C16.6675 0.489856 16.5973 0.320287 16.4723 0.195262C16.3472 0.070238 16.1777 0 16.0008 0ZM10.4375 13.7742C9.69154 14.5198 8.74123 15.0275 7.70673 15.2331C6.67223 15.4387 5.6 15.333 4.6256 14.9292C3.6512 14.5255 2.81839 13.8419 2.23246 12.9649C1.64653 12.0879 1.33379 11.0568 1.33379 10.0021C1.33379 8.94735 1.64653 7.9163 2.23246 7.03929C2.81839 6.16228 3.6512 5.47869 4.6256 5.07495C5.6 4.67122 6.67223 4.56546 7.70673 4.77105C8.74123 4.97665 9.69154 5.48436 10.4375 6.23C11.4362 7.23134 11.997 8.58786 11.997 10.0021C11.997 11.4163 11.4362 12.7728 10.4375 13.7742Z" fill="black" fill-opacity="0.35"/>
</svg>
