<svg width="26" height="27" viewBox="0 0 26 27" fill="none" xmlns="http://www.w3.org/2000/svg">
<path d="M24.5358 6.88802C24.3004 7.00992 24.0263 7.03336 23.7736 6.9532C23.5209 6.87303 23.3104 6.69582 23.1883 6.46052C22.2338 4.57488 20.7891 2.98114 19.0058 1.84677C18.8947 1.77667 18.7985 1.68538 18.7226 1.57809C18.6468 1.47081 18.5928 1.34963 18.5638 1.22149C18.5348 1.09334 18.5313 0.960738 18.5535 0.831243C18.5757 0.701748 18.6232 0.577899 18.6933 0.466768C18.7634 0.355636 18.8547 0.259399 18.962 0.183551C19.0693 0.107703 19.1905 0.0537284 19.3186 0.0247101C19.4468 -0.00430817 19.5794 -0.00780234 19.7089 0.0144271C19.8384 0.0366566 19.9622 0.0841745 20.0733 0.154268C22.1516 1.48494 23.8391 3.34372 24.9633 5.54052C25.0852 5.77592 25.1087 6.05008 25.0285 6.30276C24.9483 6.55544 24.7711 6.76594 24.5358 6.88802ZM0.999581 7.00052C1.18278 7.00044 1.36245 6.95004 1.51896 6.85481C1.67547 6.75958 1.80281 6.62319 1.88708 6.46052C2.84158 4.57488 4.28635 2.98114 6.06958 1.84677C6.29402 1.70521 6.45303 1.48029 6.51164 1.22149C6.57024 0.962688 6.52364 0.691207 6.38208 0.466768C6.24052 0.242328 6.0156 0.0833153 5.7568 0.0247101C5.498 -0.033895 5.22652 0.0127082 5.00208 0.154268C2.92383 1.48494 1.23631 3.34372 0.112081 5.54052C0.0331286 5.69292 -0.00526993 5.86307 0.000581376 6.03461C0.00643268 6.20615 0.0563368 6.37329 0.145491 6.51995C0.234645 6.66662 0.360048 6.78787 0.509632 6.87203C0.659216 6.9562 0.827945 7.00045 0.999581 7.00052ZM24.2621 19.993C24.4392 20.2968 24.5332 20.642 24.5344 20.9937C24.5356 21.3453 24.444 21.6911 24.269 21.9961C24.0939 22.3011 23.8415 22.5546 23.5372 22.7309C23.2329 22.9073 22.8875 23.0003 22.5358 23.0005H17.4358C17.2063 24.1308 16.5931 25.147 15.7001 25.8769C14.8071 26.6068 13.6892 27.0055 12.5358 27.0055C11.3825 27.0055 10.2646 26.6068 9.37157 25.8769C8.47856 25.147 7.86535 24.1308 7.63583 23.0005H2.53583C2.18436 22.9998 1.83927 22.9065 1.53534 22.73C1.23141 22.5535 0.979356 22.3 0.80458 21.9951C0.629804 21.6901 0.538475 21.3445 0.539792 20.993C0.541109 20.6416 0.635025 20.2966 0.812081 19.993C1.93833 18.0493 2.53583 15.2855 2.53583 12.0005C2.53583 9.34835 3.5894 6.80481 5.46476 4.92945C7.34013 3.05409 9.88367 2.00052 12.5358 2.00052C15.188 2.00052 17.7315 3.05409 19.6069 4.92945C21.4823 6.80481 22.5358 9.34835 22.5358 12.0005C22.5358 15.2843 23.1333 18.048 24.2621 19.993ZM15.3633 23.0005H9.70833C9.91551 23.5848 10.2986 24.0905 10.8049 24.4482C11.3112 24.8059 11.9159 24.9979 12.5358 24.9979C13.1557 24.9979 13.7604 24.8059 14.2667 24.4482C14.7731 24.0905 15.1562 23.5848 15.3633 23.0005ZM22.5358 21.0005C21.2058 18.7168 20.5358 15.6893 20.5358 12.0005C20.5358 9.87879 19.693 7.84395 18.1927 6.34366C16.6924 4.84337 14.6576 4.00052 12.5358 4.00052C10.4141 4.00052 8.37927 4.84337 6.87898 6.34366C5.37869 7.84395 4.53583 9.87879 4.53583 12.0005C4.53583 15.6905 3.86333 18.718 2.53583 21.0005H22.5358Z" fill="white"/>
</svg>
